<?xml version="1.0" encoding="utf-8"?>
<!-- Generator: Adobe Illustrator 23.0.4, SVG Export Plug-In . SVG Version: 6.00 Build 0)  -->
<svg version="1.1" id="Layer_1" xmlns="http://www.w3.org/2000/svg" xmlns:xlink="http://www.w3.org/1999/xlink" x="0px" y="0px"
	 width="1080px" height="720px" viewBox="0 0 1080 720" style="enable-background:new 0 0 1080 720;" xml:space="preserve">
<style type="text/css">
	.st0{fill:#FF6B00;}
	.st1{fill:none;stroke:#FF6B00;stroke-width:4.5101;stroke-miterlimit:6;}
	.st2{clip-path:url(#SVGID_2_);fill:#EA0029;}
	.st3{clip-path:url(#SVGID_2_);fill:none;stroke:#EA0029;stroke-width:4.5101;stroke-miterlimit:6;}
	.st4{clip-path:url(#SVGID_4_);fill:#EA0029;}
	.st5{clip-path:url(#SVGID_4_);fill:none;stroke:#EA0029;stroke-width:4.5101;stroke-miterlimit:6;}
	.st6{clip-path:url(#SVGID_6_);fill:#EA0029;}
	.st7{clip-path:url(#SVGID_6_);fill:none;stroke:#EA0029;stroke-width:4.5101;stroke-miterlimit:6;}
	.st8{clip-path:url(#SVGID_8_);}
</style>
<g>
	<path d="M699.7,56.2c-5.3,0-9.9-3.6-9.9-9.9c0-6.2,4.7-9.9,9.9-9.9c5.2,0,9.9,3.6,9.9,9.9C709.6,52.6,704.9,56.2,699.7,56.2
		 M699.7,38.8c-3.9,0-7.1,3-7.1,7.6c0,4.5,3.1,7.6,7,7.6h0.1v0c3.8,0,7-3.1,7-7.6C706.7,41.8,703.5,38.8,699.7,38.8 M698,51.7h-2.3
		V41h4c2.7,0,4.4,0.8,4.4,3.2c0,2-1.2,2.7-2.6,2.8l2.7,4.6h-2.7l-2.5-4.5H698V51.7z M700,45.4c1,0,1.6-0.2,1.6-1.4
		c0-1.1-1.2-1.2-2-1.2H698v2.6H700z"/>
	<path d="M579.5,243.7l-80.4,82.5h74.8v63.4c-17.2,7.2-28.4,9.9-46.2,9.9c-28.9,0-55.1-9.2-75.5-25.1l-47.9,47.7l26.6-68.6
		c-16.1-22.1-26.6-53.4-26.6-85.5c0-70,47.5-121.4,112.8-121.4c16.3,0,31.2,2.3,45.7,7.8l92.7-30.2l-32.6,40.9l49.7-17.8l-32.3,33.1
		l-4,4.2h44.2V36.5h-69.9v21.9c-27.9-10.7-58.6-16.1-92.7-16.1c-139.3,0-239.6,97-239.6,233c0,132,96.3,223.7,234.9,223.7
		c65.3,0,124.1-17.8,174.9-52.8l0-202.6H579.5z"/>
	<polygon class="st0" points="505.2,189.8 603.3,157.3 567.6,200.2 606.3,186.9 449.1,348.9 493.8,236.1 468.3,245.9 	"/>
	<polygon class="st1" points="505.2,189.8 603.3,157.3 567.6,200.2 606.3,186.9 449.1,348.9 493.8,236.1 468.3,245.9 	"/>
</g>
<g>
	<defs>
		<polygon id="SVGID_1_" points="478.2,230.8 467.4,235 449.1,262.9 489.3,247.5 493.8,236.1 499.1,222.9 		"/>
	</defs>
	<clipPath id="SVGID_2_">
		<use xlink:href="#SVGID_1_"  style="overflow:visible;"/>
	</clipPath>
	<polygon class="st2" points="499.1,222.9 478.2,230.8 468.3,245.9 493.8,236.1 	"/>
	<polygon class="st3" points="499.1,222.9 478.2,230.8 468.3,245.9 493.8,236.1 	"/>
</g>
<g>
	<defs>
		<polygon id="SVGID_3_" points="591.3,154.8 584.5,163.5 548.7,206.8 567.6,200.2 581.9,195.3 628.2,142.9 		"/>
	</defs>
	<clipPath id="SVGID_4_">
		<use xlink:href="#SVGID_3_"  style="overflow:visible;"/>
	</clipPath>
	<polygon class="st4" points="548.7,206.8 567.6,200.2 603.3,157.3 584.5,163.5 	"/>
	<polygon class="st5" points="548.7,206.8 567.6,200.2 603.3,157.3 584.5,163.5 	"/>
</g>
<g>
	<defs>
		<polygon id="SVGID_5_" points="594.9,183.5 583.9,194.6 459.3,323.2 447.3,335 425.5,390 641.5,167.3 		"/>
	</defs>
	<clipPath id="SVGID_6_">
		<use xlink:href="#SVGID_5_"  style="overflow:visible;"/>
	</clipPath>
	<polygon class="st6" points="459.2,323.3 583.9,194.6 606.3,186.9 449.1,348.9 	"/>
	<polygon class="st7" points="459.2,323.3 583.9,194.6 606.3,186.9 449.1,348.9 	"/>
</g>
<g>
	<path d="M425.5,390c7-17.9,55.2-139.2,55.2-139.2L449,262.9l51.9-79l131.7-43.7l-35.3,42.6l44.2-15.5L425.5,390 M468.3,245.9
		l25.5-9.7l-44.8,112.8l157.2-162.1l-38.6,13.3l35.7-42.9l-98.1,32.5L468.3,245.9z"/>
	<polygon points="94,607.9 137,608 133.1,629.5 90.1,629.4 84.6,660.7 139.4,660.7 135.7,682.2 57.4,682.2 79.2,559.1 157.4,559.1 
		153.5,580.6 98.7,580.6 	"/>
	<polygon points="263,559.2 241.2,682.3 213.9,682.3 192.4,614.8 180.6,682.3 157.1,682.2 178.9,559.1 202.3,559.1 225.8,636.3 
		239.5,559.1 	"/>
	<path d="M352.5,649.1c-4.3,25.4-21.3,33.2-40.9,33.2l-46.9,0l21.7-123.1l46.9,0c19.5,0,33.8,7.8,29.3,33.2L352.5,649.1z
		 M338.4,596.3c1.4-7.8,0.8-15.6-12.9-15.6H306l-14.1,80.1l19.6,0c13.7,0,17-7.8,18.4-15.6L338.4,596.3z"/>
	<path d="M392,559.2l23.5,0l-15.8,89.5c-2.1,12.3,2.7,14.1,10.4,14.1l9.4,0c7.6,0,13.3-1.8,15.5-14.1l15.8-89.5l23.4,0l-17.2,97.3
		c-3.9,21.9-20.7,27.7-35.6,27.7l-20.7,0c-14.9,0-29.7-5.9-25.8-27.8L392,559.2z"/>
	<path d="M571.9,602.9c-2.9,17.2-10.4,26.6-25.2,30.5l16.2,49.1l-27.4,0l-15-47.9h-12.7l-8.4,47.9l-23.5,0l21.7-123.1l51.4,0
		c14.9,0,29.5,5.9,25.4,29.7L571.9,602.9z M535.7,613c7.6,0,11.3-1.8,12.7-10.2l2.1-11.9c1.4-8.2-1.7-10.2-9.6-10.2l-23.9,0
		l-5.7,32.3L535.7,613z"/>
	<path d="M661.2,558.4l9.2,124.1l-26.6,0l-1.6-37.9l-26.8,0l-14.3,37.9l-26.6,0l52.6-124.1L661.2,558.4z M622.7,623l19.6,0
		l-1.6-44.2L622.7,623z"/>
</g>
<g>
	<defs>
		<rect id="SVGID_7_" x="57.4" y="36.5" width="929.1" height="648"/>
	</defs>
	<clipPath id="SVGID_8_">
		<use xlink:href="#SVGID_7_"  style="overflow:visible;"/>
	</clipPath>
	<polygon class="st8" points="789.9,559.4 768.1,682.5 740.8,682.5 719.3,615.1 707.5,682.5 684,682.5 705.8,559.3 729.3,559.4 
		752.7,636.6 766.4,559.4 	"/>
	<path class="st8" d="M884.3,580.9c0,0-18.8-2-31.1-2c-12.9,0-20.3,1.9-22.9,16l-9,52c-2.6,14.1,4.1,16,17,16
		c12.3,0,31.9-1.9,31.9-1.9l1.2,1.4l-3.5,20.1c0,0-24.8,1.9-41.1,1.9c-14.9,0-35-3.9-31.1-25.8l13.3-75.5
		c3.9-21.9,25.2-25.8,40.1-25.8c16.2,0,40.5,2,40.5,2l-3.7,20.1L884.3,580.9z"/>
</g>
<g>
	<polygon points="923.2,608.3 966.2,608.3 962.3,629.8 919.3,629.8 913.8,661.1 968.5,661.1 964.8,682.6 886.6,682.6 908.3,559.4 
		986.6,559.5 982.6,581 927.9,580.9 	"/>
</g>
</svg>
